<?xml version="1.0" encoding="utf-8"?>
<!-- Generator: Adobe Illustrator 24.3.0, SVG Export Plug-In . SVG Version: 6.00 Build 0)  -->
<svg version="1.1" id="Layer_1" xmlns="http://www.w3.org/2000/svg" xmlns:xlink="http://www.w3.org/1999/xlink" x="0px" y="0px"
	 viewBox="0 0 48 48" style="enable-background:new 0 0 48 48;" xml:space="preserve">
<style type="text/css">
	.st0{fill:#161616;}
	.st1{fill:#FF8A26;}
	.st2{fill:#FFFFFF;}
	.st3{font-family:'Gilroy-Bold';}
	.st4{font-size:26.9544px;}
</style>
<path class="st0" d="M0,0h48v48H0V0z"/>
<path class="st1" d="M41.9,32.4c0.6,0,1-0.2,1.4-0.6c0.4-0.4,0.6-0.9,0.6-1.4c0-0.6-0.2-1-0.6-1.4c-0.4-0.4-0.9-0.6-1.4-0.6
	c-0.6,0-1,0.2-1.4,0.6c-0.4,0.4-0.6,0.9-0.6,1.4c0,0.6,0.2,1,0.6,1.4C40.9,32.2,41.3,32.4,41.9,32.4z"/>
<text transform="matrix(1 0 0 1 4.2529 32.4382)" class="st2 st3 st4">SD</text>
</svg>
